HIERARCHY
ROOT Hips
{
  OFFSET -187.679 86.5976 -156.378
  CHANNELS 6 Xposition Yposition Zposition Zrotation Xrotation Yrotation
  JOINT LeftUpLeg
  {
    OFFSET 8.64259 1.95398 -2.38835
    CHANNELS 3 Zrotation Xrotation Yrotation
    JOINT LeftLeg
    {
      OFFSET 43.7702 0 0
      CHANNELS 3 Zrotation Xrotation Yrotation
      JOINT LeftFoot
      {
        OFFSET 40.6238 0 0
        CHANNELS 3 Zrotation Xrotation Yrotation
        JOINT LeftToeBase
        {
          OFFSET 12.7242 0 0
          CHANNELS 3 Zrotation Xrotation Yrotation
          End Site
          {
            OFFSET 0 0 0
          }
        }
      }
    }
  }
  JOINT RightUpLeg
  {
    OFFSET -8.2249 1.95398 -2.59336
    CHANNELS 3 Zrotation Xrotation Yrotation
    JOINT RightLeg
    {
      OFFSET 43.5653 0 0
      CHANNELS 3 Zrotation Xrotation Yrotation
      JOINT RightFoot
      {
        OFFSET 40.6238 0 0
        CHANNELS 3 Zrotation Xrotation Yrotation
        JOINT RightToeBase
        {
          OFFSET 12.7242 0 0
          CHANNELS 3 Zrotation Xrotation Yrotation
          End Site
          {
            OFFSET 0 0 0
          }
        }
      }
    }
  }
  JOINT Spine
  {
    OFFSET 0.165834 0.87714 6.61349
    CHANNELS 3 Zrotation Xrotation Yrotation
    JOINT Spine1
    {
      OFFSET 7.38963 1.71661e-005 0
      CHANNELS 3 Zrotation Xrotation Yrotation
      JOINT Spine2
      {
        OFFSET 11.9445 1.14441e-005 0
        CHANNELS 3 Zrotation Xrotation Yrotation
        JOINT Spine3
        {
          OFFSET 14.7254 4.19617e-005 0
          CHANNELS 3 Zrotation Xrotation Yrotation
          JOINT Spine4
          {
            OFFSET 10.9679 0 0
            CHANNELS 3 Zrotation Xrotation Yrotation
            JOINT RightShoulder
            {
              OFFSET 2.46616 -1.6653 3.69651
              CHANNELS 3 Zrotation Xrotation Yrotation
              JOINT RightArm
              {
                OFFSET 13.0012 0 0
                CHANNELS 3 Zrotation Xrotation Yrotation
                JOINT RightForeArm
                {
                  OFFSET 28.7848 1.52588e-005 0
                  CHANNELS 3 Zrotation Xrotation Yrotation
                  JOINT RightHand
                  {
                    OFFSET 26.5688 1.52588e-005 0
                    CHANNELS 3 Zrotation Xrotation Yrotation
                    End Site
                    {
                      OFFSET 0 0 0
                    }
                  }
                }
              }
            }
            JOINT LeftShoulder
            {
              OFFSET 2.38034 -1.29275 -3.7523
              CHANNELS 3 Zrotation Xrotation Yrotation
              JOINT LeftArm
              {
                OFFSET 16.3182 6.10352e-005 0
                CHANNELS 3 Zrotation Xrotation Yrotation
                JOINT LeftForeArm
                {
                  OFFSET 27.0901 0 0
                  CHANNELS 3 Zrotation Xrotation Yrotation
                  JOINT LeftHand
                  {
                    OFFSET 24.5451 1.52588e-005 0
                    CHANNELS 3 Zrotation Xrotation Yrotation
                    End Site
                    {
                      OFFSET 0 0 0
                    }
                  }
                }
              }
            }
            JOINT Neck
            {
              OFFSET 5.0226 -0.0266342 0
              CHANNELS 3 Zrotation Xrotation Yrotation
              JOINT Head
              {
                OFFSET 6.69363 2.86102e-005 0
                CHANNELS 3 Zrotation Xrotation Yrotation
                End Site
                {
                  OFFSET 0 0 0
                }
              }
            }
          }
        }
      }
    }
  }
}
MOTION
Frames:	18
Frame Time:	0.0416667
-155.132 100.898 -150.18 -98.7491 40.6948 -83.7316 -170.786 0.578898 98.4254 -21.2272 31.1531 6.40383 66.7382 4.40869 0.300551 27.1345 -1.01666 1.12524 172.819 -1.10166 87.2191 -22.4126 3.05315 1.32935 68.3882 -2.80805 0.0335683 24.1987 -2.20716 4.50888 0.239955 7.96716 -90.088 10.94 0.437034 -0.216518 -0.730881 0.427085 -0.235549 -23.2666 0.4819 -0.0751615 -3.25397 0.481891 -0.075163 87.7695 -48.6938 -104.379 21.3545 -14.2534 -13.3782 -27.6187 -16.5873 -36.1349 -10.7214 -0.414679 -0.517994 -90.718 -47.3241 77.2596 -34.4036 18.7254 7.75433 8.89655 -9.31758 -14.122 -3.26575 -0.106139 -1.69908 12.8563 -0.865293 -1.95525 9.51575 0.00397433 3.25309 
-156.419 100.986 -149.666 -99.3308 40.9657 -83.6322 -170.893 -1.03035 97.3946 -20.3463 30.3105 6.46922 67.4377 4.68038 0.268073 26.8603 -1.17658 1.27632 172.017 -2.10285 85.8591 -21.5791 1.83446 1.19491 68.0444 -2.82444 -0.00217187 24.8584 -2.04587 4.42209 0.235887 7.99068 -90.0136 10.8927 0.463392 -0.0705968 -0.778167 0.459833 -0.0909279 -23.314 0.46317 0.0719419 -3.30134 0.463187 0.071941 87.0087 -49.0384 -105.449 22.4053 -17.2331 -12.4581 -21.3197 -13.7657 -26.457 -9.45245 -0.196538 -2.86942 -90.5632 -47.0716 77.4369 -30.5671 18.4206 3.0538 10.0201 -6.01095 -17.3589 0.855997 -0.0147036 -1.62582 12.3247 -1.02327 -1.89948 9.15116 -0.211496 2.98102 
-157.322 101.024 -149.323 -99.6098 41.2446 -83.4862 -170.993 -1.63229 96.7918 -20.5492 29.5965 6.65818 67.9575 4.78566 -0.0213469 25.7397 -1.28386 0.299236 171.759 -2.83581 85.2646 -20.7314 1.4162 0.901749 67.7399 -2.87088 0.0563507 25.0507 -1.99282 4.37707 0.224849 8.01782 -89.9907 10.8383 0.452016 -0.0236814 -0.832529 0.450532 -0.0435567 -23.3683 0.438238 0.113267 -3.35564 0.438239 0.113268 85.9603 -49.7157 -106.843 23.2053 -19.1481 -11.3003 -19.7799 -19.0628 -21.1149 -6.13015 0.015335 -5.62598 -90.522 -47.27 77.5475 -26.6893 18.724 -1.71246 10.5853 -6.03603 -21.806 1.22577 -0.0168664 -1.95494 12.4148 -0.898473 -1.3073 8.71346 -0.28675 2.58727 
-157.997 101.038 -149.048 -99.7059 41.422 -83.4546 -171.108 -1.93719 96.2923 -20.7856 29.3036 6.67208 68.2269 4.97123 0.335023 25.6613 -1.27394 0.1866 171.632 -3.14049 84.8565 -20.3663 1.23667 0.654254 67.5262 -2.87833 0.0790362 25.3416 -1.9145 4.31407 0.20702 8.02615 -89.9356 10.8215 0.442003 0.0869371 -0.849362 0.445391 0.0674049 -23.385 0.395441 0.215762 -3.37236 0.395442 0.215765 85.5248 -50.0093 -107.41 24.9956 -20.1065 -9.73125 -17.6235 -20.8807 -17.014 -4.6827 0.0173961 -6.17251 -90.2788 -46.7514 77.7995 -24.1669 16.2249 -6.16078 11.5741 -5.41373 -25.5916 2.22601 -0.0111757 -2.29219 12.2593 -0.853471 -1.27312 9.01398 -0.298353 2.08712 
-158.538 101.044 -148.778 -99.8522 41.7312 -83.1397 -171.111 -2.09344 96.044 -21.201 28.9168 6.77833 68.5563 5.13934 0.594013 25.587 -1.27191 0.0988707 171.411 -3.4848 84.5877 -19.8466 0.687454 0.61706 67.2268 -2.95748 0.112099 25.6248 -1.83506 4.24121 0.163482 7.99644 -89.9219 10.8809 0.361655 0.121312 -0.790045 0.366638 0.105265 -23.3255 0.308461 0.224389 -3.31283 0.308476 0.224389 85.8065 -50.2801 -106.903 26.3371 -20.5043 -7.78357 -16.9278 -20.3154 -16.0314 -4.52888 0.0315402 -6.60866 -90.1973 -46.7376 77.9223 -22.4889 12.8998 -8.39392 13.4679 -3.49767 -30.9515 3.17279 0.0459448 -1.44812 11.4139 -0.328403 -1.16335 9.65668 0.177903 2.00979 
-159.144 101.022 -148.614 -99.8778 42.3424 -83.2594 -171.398 -2.43822 95.3533 -21.3412 27.6714 6.82686 68.9432 5.24247 0.372683 25.2276 -1.41379 0.101101 171.278 -3.34509 84.0828 -20.0293 0.346126 0.311495 67.262 -3.05158 0.417764 25.9192 -1.77685 4.24092 0.10646 7.99619 -89.9037 10.8813 0.256516 0.167344 -0.789578 0.263623 0.155892 -23.3248 0.194365 0.236699 -3.31215 0.194367 0.236706 85.5176 -50.6691 -107.217 26.7219 -19.3135 -6.16756 -18.1348 -20.443 -17.8271 -5.16915 0.0134953 -5.91408 -90.2407 -46.4747 77.7933 -22.1591 10.7472 -9.8125 14.4893 -2.88538 -35.2508 2.42907 0.0262362 -1.49034 11.7615 -0.0621625 -0.705169 8.86125 0.292463 1.79309 
-159.584 101.011 -148.58 -99.9787 43.0602 -83.0582 -171.328 -2.62453 95.2448 -21.5516 26.9038 6.64238 69.251 5.37142 0.326314 25.0672 -1.38131 -0.163104 171.168 -3.36565 83.8585 -19.957 -0.570159 0.203594 67.1286 -3.03852 0.2237 26.2345 -1.73626 4.30917 0.0390245 7.9768 -89.8707 10.9202 0.137634 0.244254 -0.750793 0.148243 0.23795 -23.2858 0.0578574 0.27432 -3.27314 0.0578655 0.274321 85.7147 -50.5313 -106.964 27.321 -19.2811 -5.28952 -18.8041 -18.3984 -19.799 -6.70905 0.0178364 -5.74091 -90.1087 -46.1684 77.9261 -22.0336 9.98765 -10.0084 15.7729 -1.95565 -38.1286 1.97436 0.00594814 -1.75458 11.7077 0.346879 -0.849791 8.71607 0.736266 1.94483 
-159.942 100.98 -148.552 -100.256 44.0479 -82.8745 -171.525 -3.1479 94.8201 -21.4169 25.3096 6.5523 69.6287 5.54279 0.0911091 24.7928 -1.39318 -0.425767 170.97 -3.263 83.4216 -20.1074 -1.80918 0.0423922 67.2271 -3.06852 0.301983 26.1662 -1.72541 4.23185 0.0365312 7.97721 -89.9073 10.9193 0.115637 0.173397 -0.751635 0.123157 0.168141 -23.2867 0.0581995 0.200141 -3.27406 0.0581618 0.200131 86.503 -49.5677 -106.064 27.9577 -19.0977 -5.15258 -19.8095 -18.1193 -21.8762 -6.92374 -0.0267659 -4.88974 -90.6908 -47.5967 77.3665 -20.8186 11.4032 -9.52201 16.1875 -1.71465 -38.529 1.40522 -0.0160421 -2.03551 11.6275 1.04826 0.615319 8.89747 0.983528 1.12041 
-160.156 100.987 -148.603 -100.552 45.2716 -82.3207 -171.392 -3.48198 94.8527 -21.4223 24.1803 6.5124 69.7796 5.59265 0.147284 24.9167 -1.33568 -0.451864 171.127 -3.33275 83.536 -19.8744 -2.78787 -0.206329 66.9505 -3.04837 0.299951 26.411 -1.71198 4.343 0.112835 7.98904 -89.9249 10.8957 0.25941 0.124996 -0.775268 0.264677 0.11345 -23.3105 0.209843 0.197188 -3.29787 0.209859 0.19718 86.695 -49.2695 -105.861 27.9942 -18.8127 -5.90932 -20.8393 -19.0242 -23.2257 -8.07229 -0.0936341 -3.87721 -90.7635 -47.3875 77.2051 -21.7283 12.5961 -8.66043 16.9406 -0.102349 -36.4951 0.509175 -0.0415593 -2.39081 11.8435 1.4046 0.908913 8.51493 1.23466 0.935323 
-160.342 100.951 -148.649 -100.555 46.1799 -82.2882 -171.49 -3.75995 94.5716 -21.2371 23.2602 6.45647 69.963 5.71354 0.281372 25.1045 -1.4033 -0.0623403 171.148 -3.1845 83.3919 -19.795 -3.80274 -0.41219 67.0268 -3.087 0.228209 26.4517 -1.68753 4.29041 0.151909 7.9695 -89.8995 10.9346 0.349013 0.167032 -0.736278 0.356035 0.151496 -23.2716 0.282685 0.264203 -3.25896 0.282685 0.264196 86.4786 -49.6187 -106.086 27.2574 -19.4901 -6.49742 -20.7277 -17.1491 -24.2634 -8.59944 -0.0768364 -4.20915 -90.9471 -47.3759 76.9214 -22.7807 14.4459 -7.0637 15.5481 -0.513491 -32.0778 0.383351 -0.0534018 -2.82468 11.3912 1.56706 1.05209 8.9694 1.34435 0.728777 
-160.622 100.948 -148.744 -100.872 46.9923 -82.0737 -171.605 -4.35617 94.2162 -20.9142 22.1267 6.46676 69.8812 5.69166 0.268037 25.4052 -1.35279 0.125966 171.015 -3.17348 83.0804 -19.9453 -4.58972 -0.562286 67.1079 -3.12024 0.426284 26.3731 -1.67136 4.18901 0.167462 7.98408 -89.8935 10.9054 0.382738 0.175801 -0.765466 0.390096 0.158789 -23.3009 0.312191 0.282702 -3.2882 0.312212 0.282702 86.1302 -49.6941 -106.592 26.6544 -19.5326 -7.18132 -22.1941 -18.3108 -26.2497 -8.09078 -0.0809295 -4.13242 -90.9578 -47.7666 76.9998 -23.848 16.6829 -5.19308 12.8617 -2.53888 -25.8033 1.51876 -0.00596317 -1.82137 11.5896 1.9273 1.16068 8.55084 1.70959 1.19212 
-160.917 100.918 -148.923 -100.74 47.319 -82.1723 -171.576 -4.53362 94.1067 -20.8108 21.8703 6.37485 69.9208 5.76855 0.472897 25.7613 -1.19674 0.0787664 170.978 -3.21142 82.9605 -19.8456 -4.84764 -0.633879 67.0476 -3.09872 0.455118 26.6573 -1.66636 4.35311 0.157963 7.97379 -89.9252 10.9261 0.349168 0.115854 -0.744791 0.353925 0.100366 -23.2802 0.298195 0.215442 -3.26755 0.298207 0.215436 86.4577 -49.138 -106.262 26.8604 -19.3205 -7.37537 -22.273 -15.84 -27.9376 -8.59877 -0.109835 -3.69749 -91.0946 -48.3636 76.9364 -24.9868 19.0733 -3.46344 10.7356 -4.47947 -19.1947 2.15572 0.0072138 -1.81088 11.5858 2.12216 1.78075 8.65606 1.70653 0.749233 
-161.1 100.907 -149.03 -100.808 47.5966 -82.4533 -171.779 -4.94435 93.635 -20.3672 21.128 6.27103 69.8597 5.74708 0.270026 25.5157 -1.2135 -0.143748 170.847 -3.06924 82.5524 -20.177 -5.0751 -0.808584 67.3566 -3.17199 0.58326 26.7496 -1.64347 4.3376 0.165555 7.97715 -89.8853 10.9193 0.382668 0.192057 -0.751658 0.390786 0.175019 -23.287 0.307282 0.298193 -3.27437 0.307277 0.298189 86.5491 -49.1484 -106.119 26.4908 -19.5532 -7.70571 -23.2528 -16.2771 -29.4722 -9.79445 -0.226784 -2.41217 -91.1433 -48.3621 76.8623 -26.5571 20.2329 -0.884428 9.43573 -5.93905 -14.9565 1.79084 0.0113949 -1.40442 12.1045 1.976 1.49388 7.88626 1.63874 0.933343 
-161.283 100.881 -149.172 -100.32 47.5865 -82.687 -171.856 -4.79934 93.6046 -20.3614 21.2685 6.36892 69.8244 5.87132 0.865215 25.6445 -1.16851 -0.129468 170.916 -2.90538 82.6899 -20.1399 -5.09156 -0.741474 67.1991 -3.11978 0.409272 26.916 -1.60845 4.33034 0.199054 7.97323 -89.9041 10.9272 0.440669 0.149028 -0.743725 0.446796 0.129483 -23.2793 0.375499 0.274574 -3.26662 0.375501 0.274571 86.9093 -49.1588 -105.566 26.4253 -19.1685 -7.91564 -23.3047 -15.0733 -30.1986 -9.09333 -0.22391 -2.24077 -91.1928 -48.1216 76.7288 -28.2483 21.2839 0.991606 8.37856 -9.58547 -11.384 1.05819 0.0139145 -0.834961 12.7344 1.93214 1.27826 7.72654 1.64265 0.972595 
-161.473 100.886 -149.278 -100.048 47.6403 -82.9548 -171.946 -4.70057 93.426 -20.4651 21.3726 6.38647 69.6785 5.86686 1.1672 25.883 -1.04947 -0.203628 170.833 -2.73706 82.563 -20.291 -5.0296 -0.70749 67.2864 -3.15668 0.451803 27.1421 -1.618 4.50765 0.210048 7.95914 -89.9061 10.9553 0.4617 0.143079 -0.715534 0.46755 0.122609 -23.2511 0.397359 0.275223 -3.2385 0.397361 0.275221 86.684 -49.1846 -105.902 26.155 -19.1434 -7.73401 -24.8354 -18.1869 -31.1233 -9.35249 -0.202069 -2.60947 -90.9922 -48.1777 77.0465 -29.0205 20.5916 2.7214 8.31635 -10.1575 -11.4307 1.51424 0.0228238 -0.975906 12.6808 1.92307 1.15375 7.65 1.68002 1.14037 
-161.636 100.89 -149.43 -99.787 47.1962 -83.1813 -172.02 -4.45999 93.4029 -20.8378 21.5556 6.55174 69.6104 5.71858 0.915487 26.1579 -1.04783 0.0969579 170.768 -2.89863 82.5729 -20.1332 -4.76213 -0.621739 67.1931 -3.16618 0.314819 27.1507 -1.59442 4.43585 0.231561 7.95892 -89.8999 10.9558 0.507415 0.150992 -0.715081 0.513566 0.128511 -23.2508 0.438562 0.296518 -3.23814 0.438555 0.296507 86.4441 -49.3819 -106.209 26.0513 -19.0608 -7.69723 -23.232 -16.8712 -29.0797 -10.7808 -0.262151 -2.25284 -90.9046 -47.8062 77.0903 -29.1897 20.5024 3.07446 8.21894 -10.2444 -12.4954 1.33883 0.0147688 -0.862137 12.4739 1.38437 0.231841 7.85919 1.46753 1.96958 
-161.712 100.888 -149.542 -99.5228 46.7936 -83.4738 -171.942 -4.29545 93.4597 -20.9107 22.3181 6.4683 69.4667 5.75531 1.33585 26.2883 -0.949011 -0.0409164 170.846 -2.87797 82.6488 -20.2958 -4.32333 -0.657425 67.3488 -3.19842 0.0837992 27.1642 -1.59729 4.45393 0.249493 7.95231 -89.886 10.9689 0.54953 0.174506 -0.701932 0.556672 0.150146 -23.2377 0.47168 0.3316 -3.22509 0.471652 0.331589 86.4096 -49.5276 -106.218 26.1216 -19.282 -7.78561 -19.6166 -11.4231 -25.6568 -15.4508 -0.385609 -2.149 -90.9003 -47.561 77.0379 -28.2595 18.7105 2.20342 9.07225 -7.42033 -13.9869 4.8227 0.318601 2.25284 11.9538 1.19001 -0.0346471 8.24198 1.36701 2.12603 
-161.812 100.885 -149.619 -99.5755 46.4135 -83.5481 -171.951 -4.38996 93.4255 -20.9539 22.6836 6.50376 69.4314 5.76911 1.42939 26.4308 -0.906809 -0.00264121 170.683 -3.02937 82.4902 -20.3987 -4.13073 -0.571306 67.3905 -3.21301 0.261651 27.4802 -1.39592 3.99375 0.228769 7.97649 -89.9054 10.9206 0.499277 0.141086 -0.750211 0.504972 0.118972 -23.2859 0.433777 0.284614 -3.27327 0.433772 0.28461 86.2353 -49.613 -106.457 26.0127 -19.4106 -7.72696 -18.9227 -11.8571 -24.032 -15.1821 -0.335985 -2.49647 -90.856 -47.7164 77.143 -27.8049 19.2047 0.78467 8.94212 -8.73264 -15.931 1.71801 -0.000442331 -1.6084 11.7113 1.31698 0.439157 8.54263 1.35639 1.86577 
